<svg xmlns="http://www.w3.org/2000/svg" viewBox="0 0 64 64">
  <!-- O "I" do painel: o desenho da letra em Amsterdam, já em contorno, para
       não depender da fonte. Levemente encorpado para sobreviver a 16px. -->
  <rect width="64" height="64" rx="12" fill="#171110"/>
  <path transform="translate(29.88 51.62) scale(0.05614)"
    fill="#f0b569" stroke="#f0b569" stroke-width="28" stroke-linejoin="round"
    d="M342.29-727.05Q326.17-684.57 308.11-643.07Q118.16-212.89-18.07 95.21Q-49.80 101.07-30.76 57.62Q4.39-36.13 93.02-240.97Q181.64-445.80 273.44-649.41Q291.99-690.92 307.62-733.40Q308.11-735.35 309.08-737.30Q312.50-745.12 314.70-754.15Q316.89-763.18 315.43-773.93Q301.27-771.48 289.55-765.62Q286.62-764.65 284.18-763.67Q175.78-718.75 57.86-646.48Q-60.06-574.22-147.46-495.61Q-166.02-478.52-183.59-459.96Q-201.17-441.41-216.31-420.41Q-233.40-397.95-241.70-370.61Q-256.84-319.82-211.43-293.46Q-179.69-275.39-148.19-269.29Q-116.70-263.18-88.87-263.67Q-61.04-264.16-40.53-266.60Q-32.23-267.09-25.88-267.58Q-21.97-268.07-17.82-267.33Q-13.67-266.60-10.74-262.70Q-5.86-255.86-23.44-252.20Q-41.02-248.54-71.53-248.54Q-102.05-248.54-136.23-252.44Q-196.78-260.74-230.47-278.32Q-250.98-288.57-264.65-306.64Q-280.27-328.61-276.86-354.98Q-273.44-382.32-259.77-405.76Q-236.82-443.85-205.57-474.61Q-150.88-530.76-78.61-583.25Q-6.35-635.74 71.04-680.42Q148.44-725.10 218.75-758.30Q250.98-772.95 284.18-785.64Q299.80-791.99 316.89-794.43Q321.78-794.92 325.68-794.43Q357.42-795.90 352.05-762.21Q348.63-744.14 342.29-727.05"/>
</svg>
